<svg width="24" height="24" viewBox="0 0 24 24" fill="none" xmlns="http://www.w3.org/2000/svg">
<g clip-path="url(#clip0_1430_121)">
<path d="M9.13646 9.17936H2.32625C1.81549 9.17936 1.47498 8.83885 1.47498 8.32808C1.47498 7.81732 1.81549 7.47681 2.32625 7.47681H9.13646C9.64722 7.47681 9.98773 7.81732 9.98773 8.32808C9.98773 8.83885 9.64722 9.17936 9.13646 9.17936Z" fill="white"/>
<path d="M11.6903 14.287H2.32625C1.81549 14.287 1.47498 13.9465 1.47498 13.4357C1.47498 12.925 1.81549 12.5845 2.32625 12.5845H11.6903C12.2011 12.5845 12.5416 12.925 12.5416 13.4357C12.5416 13.9465 12.2011 14.287 11.6903 14.287Z" fill="white"/>
<path d="M9.13646 19.3947H2.32625C1.81549 19.3947 1.47498 19.0542 1.47498 18.5434C1.47498 18.0326 1.81549 17.6921 2.32625 17.6921H9.13646C9.64722 17.6921 9.98773 18.0326 9.98773 18.5434C9.98773 19.0542 9.64722 19.3947 9.13646 19.3947Z" fill="white"/>
<path d="M9.06657 6.70255H2.25637C1.7456 6.70255 1.40509 6.36204 1.40509 5.85128C1.40509 5.34051 1.7456 5 2.25637 5H9.06657C9.57734 5 9.91785 5.34051 9.91785 5.85128C9.91785 6.36204 9.57734 6.70255 9.06657 6.70255Z" fill="white"/>
<path d="M11.6204 11.8102H2.25637C1.7456 11.8102 1.40509 11.4697 1.40509 10.9589C1.40509 10.4482 1.7456 10.1077 2.25637 10.1077H11.6204C12.1312 10.1077 12.4717 10.4482 12.4717 10.9589C12.4717 11.4697 12.1312 11.8102 11.6204 11.8102Z" fill="white"/>
<path d="M9.06657 16.9179H2.25637C1.7456 16.9179 1.40509 16.5774 1.40509 16.0666C1.40509 15.5558 1.7456 15.2153 2.25637 15.2153H9.06657C9.57734 15.2153 9.91785 15.5558 9.91785 16.0666C9.91785 16.5774 9.57734 16.9179 9.06657 16.9179Z" fill="white"/>
<g clip-path="url(#clip1_1430_121)">
<path fill-rule="evenodd" clip-rule="evenodd" d="M16 14C18.7614 14 21 11.7614 21 9C21 6.23858 18.7614 4 16 4C13.2386 4 11 6.23858 11 9C11 11.7614 13.2386 14 16 14ZM11 16C9.34315 16 8 17.3431 8 19V21C8 22.6569 9.34315 24 11 24H21C22.6569 24 24 22.6569 24 21V19C24 17.3431 22.6569 16 21 16H11Z" fill="white"/>
</g>
</g>
<defs>
<clipPath id="clip0_1430_121">
<rect width="24" height="24" fill="white"/>
</clipPath>
<clipPath id="clip1_1430_121">
<rect width="18" height="18" fill="white" transform="translate(4 2)"/>
</clipPath>
</defs>
</svg>
