<svg width="20" height="20" viewBox="0 0 20 20" fill="none" xmlns="http://www.w3.org/2000/svg">
<path fill-rule="evenodd" clip-rule="evenodd" d="M5.4456 6.46407L5.09774 3.33333H14.9023L14.5939 6.10853C14.0271 5.94208 13.3343 5.83333 12.5 5.83333C11.3192 5.83333 10.6089 6.19935 9.94328 6.5424C8.89212 7.08412 7.95208 7.56857 5.4456 6.46407ZM4.56006 6.04022L4.16669 2.5H15.8334L15.3981 6.41759L14.3314 16.0174C14.2963 16.3339 14.174 16.6215 13.99 16.8574C13.6988 17.2309 13.2531 17.4747 12.7543 17.4981C12.728 17.4994 12.7015 17.5 12.6749 17.5H7.32509C6.47584 17.5 5.7624 16.8614 5.66862 16.0174L4.56006 6.04022Z" fill="white"/>
</svg>
