<svg width="24" height="24" viewBox="0 0 24 24" fill="none" xmlns="http://www.w3.org/2000/svg">
<path d="M4.7004 5.08051C3.75304 5.08051 3 5.80518 3 6.71687V19.3636C3 20.2753 3.75304 21 4.7004 21H19.2996C20.247 21 21 20.2753 21 19.3636V6.71687C21 5.80518 20.247 5.08051 19.2996 5.08051H18.7166V6.10907C18.7166 6.81037 18.1336 7.37141 17.4049 7.37141C16.6761 7.37141 16.0931 6.81037 16.0931 6.10907V5.08051H7.90688V6.10907C7.90688 6.81037 7.32389 7.37141 6.59514 7.37141C5.8664 7.37141 5.2834 6.81037 5.2834 6.10907V5.08051H4.7004ZM5.76923 9.63895H18.2308C18.5951 9.63895 18.9109 9.89609 18.9109 10.2234V18.4052C18.9109 18.7325 18.5951 18.9896 18.2308 18.9896H5.76923C5.40486 18.9896 5.08907 18.7325 5.08907 18.4052V10.2234C5.08907 9.91947 5.40486 9.63895 5.76923 9.63895Z" fill="white"/>
<path d="M5.96359 3.6078V5.08053V6.10909C5.96359 6.43636 6.2308 6.71689 6.59517 6.71689C6.93525 6.71689 7.22675 6.43636 7.22675 6.10909V5.08053V3.6078C7.22675 3.28053 6.93525 3 6.59517 3C6.25509 3 5.96359 3.25715 5.96359 3.6078Z" fill="white"/>
<path d="M16.7975 3.6078V5.08053V6.10909C16.7975 6.43636 17.089 6.71689 17.4291 6.71689C17.7692 6.71689 18.0607 6.43636 18.0607 6.10909V5.08053V3.6078C18.0607 3.28053 17.7935 3 17.4291 3C17.0648 3 16.7975 3.25715 16.7975 3.6078Z" fill="white"/>
<path d="M9.58294 10.6675H6.2793V13.9169H9.58294V10.6675Z" fill="white"/>
<path d="M13.7369 10.6675H10.4332V13.9169H13.7369V10.6675Z" fill="white"/>
<path d="M9.58294 14.6649H6.2793V17.9143H9.58294V14.6649Z" fill="white"/>
<path d="M13.7369 14.6649H10.4332V17.9143H13.7369V14.6649Z" fill="white"/>
<path d="M18.0364 10.6675H14.7328V13.9169H18.0364V10.6675Z" fill="white"/>
<path d="M18.0364 14.6649H14.7328V17.9143H18.0364V14.6649Z" fill="white"/>
</svg>
