<svg width="24" height="24" viewBox="0 0 24 24" fill="none" xmlns="http://www.w3.org/2000/svg">
<path d="M11.905 3.58987V5.70969C11.905 6.29264 11.4283 6.7696 10.8456 6.7696H3.53606V3.58987H11.905ZM21.0684 2H3.32419C2.58265 2 2 2.58295 2 3.32489V12.0692C2 12.3341 2 12.5991 2 12.8111V21.0784C2 21.6613 2.47671 22.1383 3.05936 22.1383H3.21826H21.0684C21.651 22.1383 22.1277 21.6613 22.1277 21.0784V11.7512C22.1277 10.8503 22.1277 9.41939 22.1277 8.57146V8.35946C22.1277 7.51154 22.1277 6.02766 22.1277 5.17973V3.05991C22.1277 2.47696 21.651 2 21.0684 2Z" fill="white"/>
<path d="M7.15186 13.531L6.10889 14.615V17.4978H4.98389V8.96655H6.10889V13.1853L9.8999 8.96655H11.2593L7.90186 12.7341L11.5229 17.4978H10.1753L7.15186 13.531ZM18.6187 16.3787C18.3296 16.7927 17.9253 17.1033 17.4058 17.3103C16.8901 17.5134 16.2886 17.615 15.6011 17.615C14.9058 17.615 14.2886 17.4529 13.7495 17.1287C13.2104 16.8005 12.7925 16.3357 12.4956 15.7341C12.2026 15.1326 12.0522 14.4353 12.0444 13.6423V12.8982C12.0444 11.613 12.3433 10.6169 12.9409 9.90991C13.5425 9.20288 14.3862 8.84937 15.4722 8.84937C16.3628 8.84937 17.0796 9.07788 17.6226 9.53491C18.1655 9.98804 18.4976 10.6326 18.6187 11.4685H17.4937C17.2827 10.3396 16.6108 9.77515 15.478 9.77515C14.7241 9.77515 14.1519 10.0408 13.7612 10.572C13.3745 11.0994 13.1792 11.865 13.1753 12.8689V13.5662C13.1753 14.5232 13.394 15.2849 13.8315 15.8513C14.269 16.4138 14.8608 16.6951 15.6069 16.6951C16.0288 16.6951 16.3979 16.6482 16.7144 16.5544C17.0308 16.4607 17.2925 16.3025 17.4995 16.0798V14.1638H15.5249V13.2498H18.6187V16.3787Z" fill="#1D91D2"/>
</svg>
