<svg width="241" height="32" viewBox="0 0 241 32" fill="none" xmlns="http://www.w3.org/2000/svg">
<path d="M41.672 24H44.336C45.488 24 45.8 23.736 45.992 22.992L46.472 21.24H50.912L51.344 22.992C51.512 23.736 51.872 24 53.096 24H55.784C56.456 24 56.672 23.664 56.456 23.016L51.464 7.752C51.272 7.128 50.936 6.96 50.288 6.96H47.216C46.544 6.96 46.232 7.104 46.016 7.8L41.096 23.016C40.88 23.664 41.024 24 41.672 24ZM47.456 17.472L48.128 14.664C48.416 13.512 48.56 12.072 48.608 11.328H48.8C48.848 12.072 49.016 13.488 49.304 14.688L50 17.472H47.456ZM58.7705 24H61.5065C62.2505 24 62.5145 23.736 62.5145 22.992V17.52H62.8265C63.7385 17.52 64.0985 17.928 64.4345 18.72L66.2585 22.992C66.6185 23.856 66.9545 24 68.2265 24H70.6985C71.4905 24 71.6105 23.472 71.3225 22.824L68.5625 16.848C68.1785 16.008 67.8905 15.384 67.2665 14.976L70.9865 8.016C71.3225 7.392 71.1305 6.96 70.4105 6.96H67.6985C66.4745 6.96 66.3065 7.08 65.9465 7.848L63.3065 13.32H62.8985H62.5145V7.968C62.5145 7.224 62.2505 6.96 61.5065 6.96H58.7705C58.0265 6.96 57.7625 7.224 57.7625 7.968V22.992C57.7625 23.736 58.0265 24 58.7705 24ZM73.7225 24H76.5545C77.2745 24 77.5145 23.76 77.5145 23.04V7.92C77.5145 7.2 77.2745 6.96 76.5545 6.96H73.7225C73.0025 6.96 72.7625 7.2 72.7625 7.92V23.04C72.7625 23.76 73.0025 24 73.7225 24ZM80.9424 24H89.8464C90.6144 24 90.8784 23.736 90.8784 22.992V20.808C90.8784 20.04 90.6144 19.8 89.8464 19.8H84.6864V7.968C84.6864 7.224 84.4224 6.96 83.6784 6.96H80.9424C80.1984 6.96 79.9344 7.224 79.9344 7.968V22.992C79.9344 23.736 80.1984 24 80.9424 24ZM93.3408 24H102.245C103.013 24 103.277 23.736 103.277 22.992V20.808C103.277 20.04 103.013 19.8 102.245 19.8H97.0848V7.968C97.0848 7.224 96.8208 6.96 96.0768 6.96H93.3408C92.5968 6.96 92.3328 7.224 92.3328 7.968V22.992C92.3328 23.736 92.5968 24 93.3408 24ZM105.691 24H108.523C109.243 24 109.483 23.76 109.483 23.04V7.92C109.483 7.2 109.243 6.96 108.523 6.96H105.691C104.971 6.96 104.731 7.2 104.731 7.92V23.04C104.731 23.76 104.971 24 105.691 24Z" fill="#1D91D2"/>
<g clip-path="url(#clip0_1300_223)">
<rect width="32" height="32" rx="6" fill="#0F608E"/>
<g filter="url(#filter0_f_1300_223)">
<circle cx="16" cy="16" r="12" fill="#1D91D2"/>
</g>
<path fill-rule="evenodd" clip-rule="evenodd" d="M14.752 3.2C14.2925 3.2 13.92 3.57011 13.92 4.02666V4.85333H13.088V8.16C12.169 8.16 11.424 8.90022 11.424 9.81333V10.64H20.576V9.81333C20.576 8.90022 19.831 8.16 18.912 8.16V7.33333H20.576V6.92H22.0677L22.7778 7.62558L22.4836 7.91787L23.3156 8.74454L23.6098 8.45227L24.1981 7.86773L24.1981 7.8677L24.4922 7.57545L23.6602 6.74879L23.3661 7.04104L22.4123 6.09333H20.576V5.68H18.912V4.85333H18.08V4.02666C18.08 3.57011 17.7075 3.2 17.248 3.2H14.752ZM13.92 11.4667C14.839 11.4667 15.584 12.2069 15.584 13.12V22.1922C14.7563 21.222 13.4743 20.658 12.155 20.9857C11.2422 21.2124 10.5504 21.7576 10.0883 22.3097C9.85662 22.5864 9.67746 22.8708 9.55354 23.1294C9.43445 23.3779 9.35003 23.6364 9.34401 23.8554L10.1757 23.8779C10.1771 23.8262 10.2066 23.6894 10.3047 23.4848C10.398 23.2903 10.5392 23.0637 10.7279 22.8383C11.1065 22.386 11.6553 21.9619 12.3568 21.7877C13.7351 21.4453 15.1918 22.4621 15.584 23.9195V24.6933C15.584 26.5196 14.094 28 12.256 28C11.0093 28 9.92281 27.319 9.35268 26.3109C9.21465 26.3344 9.07276 26.3467 8.92798 26.3467C7.54947 26.3467 6.43198 25.2363 6.43198 23.8667C6.43198 23.4247 6.54834 23.0097 6.75229 22.6503C6.05932 22.2097 5.59998 21.4381 5.59998 20.56C5.59998 19.8533 5.89746 19.2157 6.3748 18.7639C6.65789 18.6149 7.07372 18.4933 8.09599 18.4933C9.12825 18.4933 10.176 19.4323 10.176 20.56H11.008C11.008 18.9484 9.55968 17.6667 8.09599 17.6667C7.36172 17.6667 6.87204 17.7258 6.49986 17.8302C6.45547 17.6451 6.43198 17.4519 6.43198 17.2533C6.43198 16.1285 7.18567 15.1786 8.21867 14.8749C8.52026 15.9795 9.36382 16.84 10.592 16.84C11.8874 16.84 12.4215 16.6559 12.8923 16.364L12.4517 15.6627C12.1567 15.8457 11.7926 16.0133 10.592 16.0133C9.76767 16.0133 9.10815 15.3678 8.95946 14.3784C9.14983 13.1964 10.1808 12.2933 11.424 12.2933C11.6228 12.2933 11.8162 12.3164 12.0015 12.3601C12.4594 11.8141 13.1488 11.4667 13.92 11.4667ZM16.416 13.12C16.416 12.2069 17.161 11.4667 18.08 11.4667C18.8511 11.4667 19.5406 11.8141 19.9984 12.3601C20.1838 12.3164 20.3772 12.2933 20.576 12.2933C21.8192 12.2933 22.8501 13.1964 23.0405 14.3784C22.8918 15.3678 22.2323 16.0133 21.408 16.0133C20.2074 16.0133 19.8432 15.8457 19.5482 15.6627L19.1077 16.364C19.5784 16.6559 20.1126 16.84 21.408 16.84C22.6361 16.84 23.4797 15.9795 23.7813 14.8749C24.8143 15.1786 25.568 16.1285 25.568 17.2533C25.568 17.4519 25.5445 17.6451 25.5001 17.8302C25.1279 17.7258 24.6382 17.6667 23.904 17.6667C22.4403 17.6667 20.992 18.9484 20.992 20.56H21.824C21.824 19.4323 22.8717 18.4933 23.904 18.4933C24.9262 18.4933 25.3421 18.6149 25.6251 18.7639C26.1025 19.2157 26.4 19.8533 26.4 20.56C26.4 21.4381 25.9406 22.2097 25.2477 22.6503C25.4516 23.0097 25.568 23.4247 25.568 23.8667C25.568 25.2363 24.4505 26.3467 23.072 26.3467C22.9272 26.3467 22.7853 26.3344 22.6473 26.3109C22.0771 27.319 20.9906 28 19.744 28C17.906 28 16.416 26.5196 16.416 24.6933V23.9195C16.8082 22.4621 18.2648 21.4453 19.6432 21.7877C20.3446 21.9619 20.8934 22.386 21.272 22.8383C21.4607 23.0637 21.602 23.2903 21.6952 23.4848C21.7933 23.6894 21.8228 23.8262 21.8243 23.8779L22.6559 23.8554C22.6499 23.6364 22.5655 23.3779 22.4464 23.1294C22.3225 22.8708 22.1433 22.5864 21.9117 22.3097C21.4496 21.7576 20.7578 21.2124 19.8449 20.9857C18.5257 20.658 17.2437 21.222 16.416 22.1922V13.12Z" fill="white"/>
</g>
<path d="M117.136 24H122.656C127.168 24 129.664 21.408 129.664 17.28V13.68C129.664 9.528 127.168 6.96 122.656 6.96H117.136C116.464 6.96 116.2 7.224 116.2 7.968V22.992C116.2 23.736 116.464 24 117.136 24ZM120.952 19.8V11.16H122.296C124.312 11.16 124.912 12.048 124.912 13.752V17.208C124.912 18.912 124.312 19.8 122.296 19.8H120.952ZM130.508 24H133.172C134.324 24 134.636 23.736 134.828 22.992L135.308 21.24H139.748L140.18 22.992C140.348 23.736 140.708 24 141.932 24H144.62C145.292 24 145.508 23.664 145.292 23.016L140.3 7.752C140.108 7.128 139.772 6.96 139.124 6.96H136.052C135.38 6.96 135.068 7.104 134.852 7.8L129.932 23.016C129.716 23.664 129.86 24 130.508 24ZM136.292 17.472L136.964 14.664C137.252 13.512 137.396 12.072 137.444 11.328H137.636C137.684 12.072 137.852 13.488 138.14 14.688L138.836 17.472H136.292ZM147.534 24H150.15C150.894 24 151.11 23.76 151.11 23.016V19.8C151.11 18.144 151.134 16.752 150.222 13.296H150.462C150.846 14.52 151.398 16.32 151.734 17.208L152.742 19.872C152.934 20.4 153.222 20.568 153.846 20.568H155.598C156.246 20.568 156.486 20.352 156.678 19.872L157.686 17.208C158.046 16.248 158.67 14.4 159.054 13.296H159.294C158.166 16.608 158.334 18.192 158.334 19.776V23.016C158.334 23.76 158.598 24 159.342 24H162.078C162.798 24 163.014 23.76 163.014 23.016V7.968C163.014 7.2 162.798 6.96 162.078 6.96H159.294C158.574 6.96 158.334 7.056 158.046 7.728L154.758 15.456L151.494 7.704C151.23 7.08 150.966 6.96 150.174 6.96H147.534C146.862 6.96 146.598 7.2 146.598 7.968V23.016C146.598 23.76 146.862 24 147.534 24ZM164.891 24H167.555C168.707 24 169.019 23.736 169.211 22.992L169.691 21.24H174.131L174.563 22.992C174.731 23.736 175.091 24 176.315 24H179.003C179.675 24 179.891 23.664 179.675 23.016L174.683 7.752C174.491 7.128 174.155 6.96 173.507 6.96H170.435C169.763 6.96 169.451 7.104 169.235 7.8L164.315 23.016C164.099 23.664 164.243 24 164.891 24ZM170.675 17.472L171.347 14.664C171.635 13.512 171.779 12.072 171.827 11.328H172.019C172.067 12.072 172.235 13.488 172.523 14.688L173.219 17.472H170.675ZM186.875 24.36C190.355 24.36 192.491 22.824 193.427 20.136C193.667 19.44 193.475 19.056 192.803 18.84L190.211 18.024C189.515 17.808 189.227 17.952 188.987 18.696C188.651 19.728 187.955 20.16 186.923 20.16C185.387 20.16 184.739 19.44 184.739 17.664V13.296C184.739 11.52 185.387 10.8 186.899 10.8C187.931 10.8 188.627 11.184 188.987 12.264C189.227 13.008 189.467 13.128 190.187 12.912L192.731 12.12C193.403 11.904 193.595 11.52 193.355 10.824C192.443 8.16 190.355 6.6 186.875 6.6C182.459 6.6 179.987 9.168 179.987 13.32V17.64C179.987 21.792 182.459 24.36 186.875 24.36ZM194.281 24H196.945C198.097 24 198.409 23.736 198.601 22.992L199.081 21.24H203.521L203.953 22.992C204.121 23.736 204.481 24 205.705 24H208.393C209.065 24 209.281 23.664 209.065 23.016L204.073 7.752C203.881 7.128 203.545 6.96 202.897 6.96H199.825C199.153 6.96 198.841 7.104 198.625 7.8L193.705 23.016C193.489 23.664 193.633 24 194.281 24ZM200.065 17.472L200.737 14.664C201.025 13.512 201.169 12.072 201.217 11.328H201.409C201.457 12.072 201.625 13.488 201.913 14.688L202.609 17.472H200.065ZM211.332 24H213.924C214.668 24 214.884 23.736 214.884 22.992V19.08C214.884 16.416 214.644 14.928 214.164 12.888H214.356C215.1 15.168 215.364 16.128 216.252 17.88L219.132 23.496C219.324 23.856 219.54 24 220.068 24H222.996C223.716 24 223.98 23.736 223.98 22.992V7.968C223.98 7.224 223.716 6.96 222.996 6.96H220.404C219.66 6.96 219.42 7.224 219.42 7.968V11.904C219.42 14.328 219.948 15.744 220.548 17.976H220.332C219.684 16.152 219.372 15.024 218.46 13.272L215.412 7.44C215.244 7.104 214.98 6.96 214.5 6.96H211.332C210.636 6.96 210.372 7.224 210.372 7.968V22.992C210.372 23.736 210.636 24 211.332 24ZM225.852 24H228.516C229.668 24 229.98 23.736 230.172 22.992L230.652 21.24H235.092L235.524 22.992C235.692 23.736 236.052 24 237.276 24H239.964C240.636 24 240.852 23.664 240.636 23.016L235.644 7.752C235.452 7.128 235.116 6.96 234.468 6.96H231.396C230.724 6.96 230.412 7.104 230.196 7.8L225.276 23.016C225.06 23.664 225.204 24 225.852 24ZM231.636 17.472L232.308 14.664C232.596 13.512 232.74 12.072 232.788 11.328H232.98C233.028 12.072 233.196 13.488 233.484 14.688L234.18 17.472H231.636Z" fill="#0F608E"/>
<defs>
<filter id="filter0_f_1300_223" x="-11" y="-11" width="54" height="54" filterUnits="userSpaceOnUse" color-interpolation-filters="sRGB">
<feFlood flood-opacity="0" result="BackgroundImageFix"/>
<feBlend mode="normal" in="SourceGraphic" in2="BackgroundImageFix" result="shape"/>
<feGaussianBlur stdDeviation="7.5" result="effect1_foregroundBlur_1300_223"/>
</filter>
<clipPath id="clip0_1300_223">
<rect width="32" height="32" rx="6" fill="white"/>
</clipPath>
</defs>
</svg>
