<svg width="16" height="20" viewBox="0 0 16 20" fill="none" xmlns="http://www.w3.org/2000/svg">
<path d="M14.205 7.98752H13.7408V5.83463C13.7408 2.62091 11.1721 0 7.98453 0C4.79691 0 2.22824 2.62091 2.22824 5.83463V7.98752H1.76402C0.804641 7.98752 0 8.79875 0 9.76599V18.2215C0 19.22 0.773693 20 1.76402 20H14.236C15.1954 20 16 19.1888 16 18.2215V9.76599C15.9691 8.76755 15.1954 7.98752 14.205 7.98752ZM8.72727 14.103V15.195C8.72727 15.351 8.60348 15.507 8.41779 15.507H7.55126C7.39652 15.507 7.27273 15.3822 7.27273 15.195V14.103C6.87041 13.8534 6.59188 13.4165 6.59188 12.8861C6.59188 12.1061 7.21083 11.4509 7.98453 11.4509C8.75822 11.4509 9.37718 12.0749 9.37718 12.8861C9.40812 13.3853 9.12959 13.8534 8.72727 14.103ZM11.234 7.98752H4.76596V5.83463C4.76596 4.02496 6.2205 2.5585 7.98453 2.5585C9.7795 2.5585 11.2031 4.02496 11.2031 5.83463V7.98752H11.234Z" fill="white"/>
</svg>
