<svg width="24" height="24" viewBox="0 0 24 24" fill="none" xmlns="http://www.w3.org/2000/svg">
<path d="M18.205 9.98752H17.7408V7.83463C17.7408 4.62091 15.1721 2 11.9845 2C8.79691 2 6.22824 4.62091 6.22824 7.83463V9.98752H5.76402C4.80464 9.98752 4 10.7988 4 11.766V20.2215C4 21.22 4.77369 22 5.76402 22H18.236C19.1954 22 20 21.1888 20 20.2215V11.766C19.9691 10.7676 19.1954 9.98752 18.205 9.98752ZM12.7273 16.103V17.195C12.7273 17.351 12.6035 17.507 12.4178 17.507H11.5513C11.3965 17.507 11.2727 17.3822 11.2727 17.195V16.103C10.8704 15.8534 10.5919 15.4165 10.5919 14.8861C10.5919 14.1061 11.2108 13.4509 11.9845 13.4509C12.7582 13.4509 13.3772 14.0749 13.3772 14.8861C13.4081 15.3853 13.1296 15.8534 12.7273 16.103ZM15.234 9.98752H8.76596V7.83463C8.76596 6.02496 10.2205 4.5585 11.9845 4.5585C13.7795 4.5585 15.2031 6.02496 15.2031 7.83463V9.98752H15.234Z" fill="white"/>
</svg>
