<svg width="30" height="27" viewBox="0 0 30 27" fill="none" xmlns="http://www.w3.org/2000/svg">
<path d="M27.9437 7.25124C27.0734 7.07346 26.2393 7.57124 26.0217 8.42456L24.1723 16.2467L10.3199 16.1045L6.98376 3.02016C6.87497 2.59349 6.58486 2.23795 6.22224 2.02461L3.21242 0.38907C2.4509 -0.0375937 1.4718 0.246847 1.03665 0.993508C0.601496 1.74017 0.891603 2.70016 1.65312 3.12682L4.08273 4.44237L7.49144 17.7756L5.67829 19.1978C5.46072 19.3756 5.31567 19.6245 5.31567 19.9089V22.1489C5.31567 22.6467 5.71456 23.0378 6.22224 23.0378L8.7969 23.0733C8.43427 23.3933 8.21669 23.8556 8.21669 24.3889C8.21669 25.3844 9.01447 26.1666 10.0298 26.1666C11.0452 26.1666 11.843 25.3844 11.843 24.3889C11.843 23.8911 11.6254 23.4644 11.299 23.1089L23.302 23.2867C23.0482 23.6067 22.9031 23.9622 22.9031 24.3889C22.9031 25.3844 23.7009 26.1666 24.7163 26.1666C25.7316 26.1666 26.5294 25.3844 26.5294 24.3889C26.5294 23.9978 26.3844 23.6422 26.1668 23.3222L27.7261 23.3578C28.2338 23.3578 28.6327 22.9667 28.6327 22.4689C28.6327 21.9711 28.2338 21.58 27.7261 21.58L7.12881 21.2956V20.3711L8.65184 19.1978C8.7969 19.2334 8.94195 19.2689 9.087 19.2689L25.4415 19.4111C26.1668 19.4111 26.8195 18.9134 27.0008 18.2023L29.1041 9.13567C29.3579 8.28234 28.814 7.42902 27.9437 7.25124Z" fill="#1D91D2"/>
</svg>
