<svg width="24" height="24" viewBox="0 0 24 24" fill="none" xmlns="http://www.w3.org/2000/svg">
<path d="M21.1367 8.64794C20.5223 8.52245 19.9336 8.87382 19.78 9.47617L18.4746 14.9977L8.6964 14.8973L6.34145 5.66129C6.26466 5.36012 6.05988 5.10914 5.8039 4.95855L3.67933 3.80405C3.14178 3.50288 2.45066 3.70366 2.14349 4.23071C1.83632 4.75777 2.0411 5.43541 2.57865 5.73658L4.29366 6.6652L6.69981 16.0769L5.41994 17.0808C5.26636 17.2063 5.16397 17.382 5.16397 17.5828V19.1639C5.16397 19.5153 5.44554 19.7914 5.8039 19.7914L7.62131 19.8165C7.36534 20.0424 7.21175 20.3686 7.21175 20.7451C7.21175 21.4478 7.77489 22 8.49162 22C9.20834 22 9.77148 21.4478 9.77148 20.7451C9.77148 20.3937 9.6179 20.0926 9.38752 19.8416L17.8602 19.9671C17.681 20.1929 17.5787 20.4439 17.5787 20.7451C17.5787 21.4478 18.1418 22 18.8585 22C19.5752 22 20.1384 21.4478 20.1384 20.7451C20.1384 20.469 20.036 20.218 19.8824 19.9922L20.9831 20.0173C21.3415 20.0173 21.623 19.7412 21.623 19.3898C21.623 19.0384 21.3415 18.7624 20.9831 18.7624L6.44384 18.5616V17.909L7.51892 17.0808C7.62131 17.1059 7.7237 17.131 7.82609 17.131L19.3705 17.2314C19.8824 17.2314 20.3432 16.88 20.4712 16.3781L21.9558 9.97812C22.135 9.37577 21.751 8.77343 21.1367 8.64794Z" fill="white"/>
<path fill-rule="evenodd" clip-rule="evenodd" d="M13.5988 2C12.8859 2 12.308 2.57791 12.308 3.29079V4.02498H10.2225C9.6633 4.02498 9.20999 4.47829 9.20999 5.03747C9.20999 5.59665 9.6633 6.04996 10.2225 6.04996H10.2427V6.5562H10.2225C9.6633 6.5562 9.20999 7.0095 9.20999 7.56868C9.20999 8.12787 9.6633 8.58117 10.2225 8.58117H10.2427V11.6186H10.2225C9.6633 11.6186 9.20999 12.0719 9.20999 12.6311C9.20999 13.1903 9.6633 13.6436 10.2225 13.6436H16.9749C17.5341 13.6436 17.9874 13.1903 17.9874 12.6311C17.9874 12.0719 17.5341 11.6186 16.9749 11.6186H16.9548V8.58117H16.9749C17.5341 8.58117 17.9874 8.12787 17.9874 7.56868C17.9874 7.0095 17.5341 6.5562 16.9749 6.5562H16.9548V6.04996H16.9749C17.5341 6.04996 17.9874 5.59665 17.9874 5.03747C17.9874 4.47829 17.5341 4.02498 16.9749 4.02498H14.8896V3.2908C14.8896 2.57791 14.3117 2 13.5988 2Z" fill="white"/>
</svg>
