<svg width="200" height="30" viewBox="0 0 200 30" fill="none" xmlns="http://www.w3.org/2000/svg">
<g filter="url(#filter0_i_1_305)">
<rect width="200" height="30" rx="10" fill="#0F608E"/>
<rect width="4" height="30" fill="url(#paint0_linear_1_305)"/>
<path d="M72.3125 18.1172H77.2891V20H69.9688V8.625H72.3125V18.1172ZM87.4844 14.5703C87.4844 15.6901 87.2865 16.6719 86.8906 17.5156C86.4948 18.3594 85.9271 19.0104 85.1875 19.4688C84.4531 19.9271 83.6094 20.1562 82.6562 20.1562C81.7135 20.1562 80.8724 19.9297 80.1328 19.4766C79.3932 19.0234 78.8203 18.3776 78.4141 17.5391C78.0078 16.6953 77.8021 15.7266 77.7969 14.6328V14.0703C77.7969 12.9505 77.9974 11.9661 78.3984 11.1172C78.8047 10.263 79.375 9.60938 80.1094 9.15625C80.849 8.69792 81.6927 8.46875 82.6406 8.46875C83.5885 8.46875 84.4297 8.69792 85.1641 9.15625C85.9036 9.60938 86.474 10.263 86.875 11.1172C87.2812 11.9661 87.4844 12.9479 87.4844 14.0625V14.5703ZM85.1094 14.0547C85.1094 12.862 84.8958 11.9557 84.4688 11.3359C84.0417 10.7161 83.4323 10.4062 82.6406 10.4062C81.8542 10.4062 81.2474 10.7135 80.8203 11.3281C80.3932 11.9375 80.1771 12.8333 80.1719 14.0156V14.5703C80.1719 15.7318 80.3854 16.6328 80.8125 17.2734C81.2396 17.9141 81.8542 18.2344 82.6562 18.2344C83.4427 18.2344 84.0469 17.9271 84.4688 17.3125C84.8906 16.6927 85.1042 15.7917 85.1094 14.6094V14.0547ZM95.4375 17.6562H91.3281L90.5469 20H88.0547L92.2891 8.625H94.4609L98.7188 20H96.2266L95.4375 17.6562ZM91.9609 15.7578H94.8047L93.375 11.5L91.9609 15.7578ZM99.7812 20V8.625H103.281C104.281 8.625 105.174 8.85156 105.961 9.30469C106.753 9.7526 107.37 10.3932 107.812 11.2266C108.255 12.0547 108.477 12.9974 108.477 14.0547V14.5781C108.477 15.6354 108.258 16.5755 107.82 17.3984C107.388 18.2214 106.776 18.8594 105.984 19.3125C105.193 19.7656 104.299 19.9948 103.305 20H99.7812ZM102.125 10.5234V18.1172H103.258C104.174 18.1172 104.875 17.8177 105.359 17.2188C105.844 16.6198 106.091 15.763 106.102 14.6484V14.0469C106.102 12.8906 105.862 12.0156 105.383 11.4219C104.904 10.8229 104.203 10.5234 103.281 10.5234H102.125ZM112.68 20H110.336V8.625H112.68V20ZM124.109 20H121.766L117.203 12.5156V20H114.859V8.625H117.203L121.773 16.125V8.625H124.109V20ZM135.156 18.5625C134.734 19.0677 134.138 19.4609 133.367 19.7422C132.596 20.0182 131.742 20.1562 130.805 20.1562C129.82 20.1562 128.956 19.9427 128.211 19.5156C127.471 19.0833 126.898 18.4583 126.492 17.6406C126.091 16.8229 125.885 15.862 125.875 14.7578V13.9844C125.875 12.849 126.065 11.8672 126.445 11.0391C126.831 10.2057 127.383 9.57031 128.102 9.13281C128.826 8.6901 129.672 8.46875 130.641 8.46875C131.99 8.46875 133.044 8.79167 133.805 9.4375C134.565 10.0781 135.016 11.013 135.156 12.2422H132.875C132.771 11.5911 132.539 11.1146 132.18 10.8125C131.826 10.5104 131.336 10.3594 130.711 10.3594C129.914 10.3594 129.307 10.6589 128.891 11.2578C128.474 11.8568 128.263 12.7474 128.258 13.9297V14.6562C128.258 15.849 128.484 16.75 128.938 17.3594C129.391 17.9688 130.055 18.2734 130.93 18.2734C131.81 18.2734 132.438 18.0859 132.812 17.7109V15.75H130.68V14.0234H135.156V18.5625Z" fill="white"/>
<rect x="2" y="2" width="196" height="26" rx="8" stroke="#05D2FF" stroke-width="4"/>
</g>
<defs>
<filter id="filter0_i_1_305" x="0" y="0" width="206" height="36" filterUnits="userSpaceOnUse" color-interpolation-filters="sRGB">
<feFlood flood-opacity="0" result="BackgroundImageFix"/>
<feBlend mode="normal" in="SourceGraphic" in2="BackgroundImageFix" result="shape"/>
<feColorMatrix in="SourceAlpha" type="matrix" values="0 0 0 0 0 0 0 0 0 0 0 0 0 0 0 0 0 0 127 0" result="hardAlpha"/>
<feOffset dx="6" dy="6"/>
<feGaussianBlur stdDeviation="5"/>
<feComposite in2="hardAlpha" operator="arithmetic" k2="-1" k3="1"/>
<feColorMatrix type="matrix" values="0 0 0 0 0 0 0 0 0 0 0 0 0 0 0 0 0 0 0.25 0"/>
<feBlend mode="normal" in2="shape" result="effect1_innerShadow_1_305"/>
</filter>
<linearGradient id="paint0_linear_1_305" x1="4" y1="12.5" x2="0.101971" y2="12.5009" gradientUnits="userSpaceOnUse">
<stop stop-color="#46D8FD"/>
<stop offset="1" stop-color="#0F608E"/>
</linearGradient>
</defs>
</svg>
